<svg xmlns="http://www.w3.org/2000/svg" viewBox="0 0 960 420" role="img" aria-label="课间教室战斗场景">
  <defs>
    <linearGradient id="wall" x1="0" x2="1" y1="0" y2="1">
      <stop offset="0" stop-color="#f4e7cf"/>
      <stop offset="1" stop-color="#d9c6a8"/>
    </linearGradient>
    <linearGradient id="floor" x1="0" x2="0" y1="0" y2="1">
      <stop offset="0" stop-color="#ba7b45"/>
      <stop offset="1" stop-color="#7a492d"/>
    </linearGradient>
    <filter id="softShadow" x="-20%" y="-20%" width="140%" height="140%">
      <feDropShadow dx="0" dy="14" stdDeviation="12" flood-color="#44210f" flood-opacity=".28"/>
    </filter>
  </defs>
  <rect width="960" height="420" fill="url(#wall)"/>
  <rect y="286" width="960" height="134" fill="url(#floor)"/>
  <rect x="282" y="54" width="396" height="146" rx="8" fill="#1f4d3a" stroke="#6b4b29" stroke-width="12"/>
  <path d="M326 98h164M326 132h276M326 166h208" stroke="#d8e4cf" stroke-width="8" stroke-linecap="round" opacity=".65"/>
  <g filter="url(#softShadow)">
    <path d="M142 312h230l-35 72H105z" fill="#8e552f"/>
    <path d="M592 312h230l35 72H627z" fill="#8e552f"/>
    <rect x="174" y="254" width="142" height="78" rx="12" fill="#c98448"/>
    <rect x="644" y="254" width="142" height="78" rx="12" fill="#c98448"/>
  </g>
  <g fill="none" stroke-linecap="round" stroke-linejoin="round">
    <path d="M376 252c36-52 73-52 110 0" stroke="#f2cf9f" stroke-width="24"/>
    <path d="M584 252c-36-52-73-52-110 0" stroke="#f2cf9f" stroke-width="24"/>
    <path d="M476 242c-33-49-63-91-112-115" stroke="#52b6f0" stroke-width="12" opacity=".9"/>
    <path d="M484 242c34-47 66-88 115-115" stroke="#e35d48" stroke-width="12" opacity=".9"/>
    <path d="M420 238c40-23 79-23 120 0" stroke="#fff6d2" stroke-width="10" opacity=".85"/>
  </g>
  <circle cx="478" cy="236" r="18" fill="#fff3b0"/>
</svg>
